<svg xmlns="http://www.w3.org/2000/svg" aria-hidden="true" style="width:0;height:0;position:absolute;overflow:hidden"><defs><symbol id="icon-fi-rr-angle-small-right" viewBox="0 0 100 100"><path fill="#ddd" d="M0 0h100v100H0V0z"/><path fill="#161616" d="M-4120.833-7687.5H1212.5V558.333h-5333.333V-7687.5z"/><path fill="#9bb537" d="M154.167 50c0 50.626-41.041 91.667-91.667 91.667S-29.167 100.626-29.167 50c0-50.626 41.041-91.667 91.667-91.667S154.167-.626 154.167 50z"/><path fill="#050505" d="M85 52.958a4.18 4.18 0 0 0 .912-4.561A4.145 4.145 0 0 0 85 47.041L65.875 27.958A4.176 4.176 0 0 1 64.643 25a4.172 4.172 0 0 1 4.17-4.17c1.101 0 2.157.436 2.938 1.212l19.125 19.125a12.5 12.5 0 0 1 0 17.666L71.751 77.958a4.18 4.18 0 0 1-5.876 0 4.176 4.176 0 0 1-1.232-2.959 4.172 4.172 0 0 1 1.232-2.958L85 52.958z"/><path fill="#050505" d="M55.834 52.958a4.18 4.18 0 0 0 .912-4.561 4.145 4.145 0 0 0-.912-1.356L36.709 27.958A4.16 4.16 0 0 1 35.477 25a4.172 4.172 0 0 1 4.17-4.17c1.101 0 2.157.436 2.937 1.212l19.125 19.125a12.5 12.5 0 0 1 0 17.666L42.584 77.958a4.18 4.18 0 0 1-5.876 0 4.16 4.16 0 0 1-1.232-2.959 4.172 4.172 0 0 1 1.232-2.958l19.125-19.083z"/></symbol><symbol id="icon-fi-r-angle-small-right" viewBox="0 0 100 100"><path fill="#ddd" d="M0 0h100v100H0V0z"/><path fill="#161616" d="M-3916.667-7687.5h5333.333V558.333h-5333.333V-7687.5z"/><path fill="#9bb537" d="M141.667 50c0 50.626-41.041 91.667-91.667 91.667S-41.667 100.626-41.667 50C-41.667-.626-.626-41.667 50-41.667S141.667-.626 141.667 50z"/><path fill="#050505" d="M55.834 52.958a4.18 4.18 0 0 0 .912-4.562 4.155 4.155 0 0 0-.912-1.356L36.709 27.957a4.16 4.16 0 0 1-1.232-2.958 4.172 4.172 0 0 1 4.17-4.17c1.101 0 2.157.436 2.937 1.212l19.125 19.125a12.5 12.5 0 0 1 0 17.666L42.584 77.957a4.18 4.18 0 0 1-5.876 0 4.16 4.16 0 0 1-1.232-2.959 4.172 4.172 0 0 1 1.232-2.958l19.125-19.083z"/></symbol><symbol id="icon-align-justify" viewBox="0 0 100 100"><path stroke-linecap="round" stroke-linejoin="round" stroke-width="6.061" d="M86.364 41.919H13.637m72.727-16.161H13.637m72.727 32.323H13.637m72.727 16.161H13.637"/></symbol><symbol id="icon-elements" viewBox="0 0 100 100"><path fill="#9bb537" d="M19.588 41.237h61.856V88.66H19.588V41.237z"/><path fill="#9bb537" d="M44.33 37.629c0 12.241-9.924 22.165-22.165 22.165S0 49.87 0 37.629s9.924-22.165 22.165-22.165S44.33 25.388 44.33 37.629z"/><path fill="#9bb537" d="M72.165 29.381c0 12.241-9.924 22.165-22.165 22.165s-22.165-9.924-22.165-22.165S37.759 7.216 50 7.216s22.165 9.924 22.165 22.165z"/><path fill="#9bb537" d="M100 37.629c0 12.241-9.924 22.165-22.165 22.165S55.67 49.87 55.67 37.629s9.924-22.165 22.165-22.165S100 25.388 100 37.629z"/><path fill="#f8f8f8" d="M19.588 85.567h61.856v5.444c0 .979-.865 1.772-1.933 1.772h-57.99c-1.067 0-1.933-.794-1.933-1.772v-5.444zm18.556-50.649c0-1.634 1.154-2.959 2.577-2.959s2.577 1.325 2.577 2.959v13.669c0 1.634-1.154 2.959-2.577 2.959s-2.577-1.325-2.577-2.959V34.918zm8.248 0c0-1.634 1.615-2.959 3.608-2.959s3.608 1.325 3.608 2.959v13.669c0 1.634-1.615 2.959-3.608 2.959s-3.608-1.325-3.608-2.959V34.918zm10.309 0c0-1.634 1.154-2.959 2.577-2.959s2.577 1.325 2.577 2.959v13.669c0 1.634-1.154 2.959-2.577 2.959s-2.577-1.325-2.577-2.959V34.918z"/><path fill="#050505" d="M75.364 15.589a22.77 22.77 0 0 1 2.348-.121c9.931 0 18.345 6.451 21.226 15.365a22.77 22.77 0 0 1-2.348.121c-9.931 0-18.345-6.451-21.226-15.365z"/></symbol><symbol id="icon-fi-r-angle-small-left" viewBox="0 0 100 100"><path fill="#f8f8f8" d="M44.166 52.958a4.18 4.18 0 0 1-.912-4.562c.211-.508.521-.968.912-1.356l19.125-19.083a4.176 4.176 0 0 0 1.232-2.958 4.172 4.172 0 0 0-4.17-4.17 4.169 4.169 0 0 0-2.938 1.212L38.29 41.166a12.5 12.5 0 0 0 0 17.666l19.125 19.125a4.18 4.18 0 0 0 5.876 0 4.176 4.176 0 0 0 1.232-2.959 4.18 4.18 0 0 0-1.232-2.959L44.166 52.956z" opacity=".5"/></symbol><symbol id="icon-fi-rr-angle-small-left" viewBox="0 0 100 100"><path fill="#fff" d="M44.166 52.958a4.175 4.175 0 0 1 0-5.917l19.125-19.083A4.176 4.176 0 0 0 64.523 25a4.172 4.172 0 0 0-4.17-4.17 4.169 4.169 0 0 0-2.938 1.212L38.29 41.167a12.5 12.5 0 0 0 0 17.666l19.125 19.125a4.162 4.162 0 0 0 2.917 1.208 4.163 4.163 0 0 0 2.959-1.209 4.176 4.176 0 0 0 1.232-2.958 4.18 4.18 0 0 0-1.232-2.959L44.166 52.957z" opacity=".5"/></symbol><symbol id="icon-heart" viewBox="0 0 100 100"><path fill="#f8f8f8" d="M49.971 21.399C41.64 11.66 27.749 9.04 17.311 17.958s-11.907 23.829-3.71 34.377c6.815 8.77 27.44 27.265 34.2 33.252.756.67 1.134 1.005 1.575 1.136.385.115.806.115 1.191 0 .441-.132.82-.467 1.575-1.136 6.76-5.986 27.385-24.482 34.2-33.252 8.197-10.548 6.907-25.552-3.71-34.377s-24.33-6.298-32.66 3.441z"/></symbol><symbol id="icon-search" viewBox="0 0 100 100"><path d="M90.459 84.543 75.001 69.21a37.503 37.503 0 0 0-4.227-51.389 37.5 37.5 0 1 0-1.565 57.18l15.333 15.333a4.177 4.177 0 0 0 4.561.912 4.171 4.171 0 0 0 1.356-.912 4.168 4.168 0 0 0 0-5.792zm-44.625-9.541a29.164 29.164 0 0 1-26.946-18.005 29.168 29.168 0 1 1 26.946 18.005z"/></symbol><symbol id="icon-shopping-cart" viewBox="0 0 100 100"><path stroke-linecap="round" stroke-linejoin="round" stroke-width="8.333" d="M37.5 91.667a4.167 4.167 0 1 0 0-8.334 4.167 4.167 0 0 0 0 8.334zm45.833 0a4.167 4.167 0 1 0 0-8.334 4.167 4.167 0 0 0 0 8.334z"/><path stroke-linecap="round" stroke-linejoin="round" stroke-width="7.5" d="M4.167 4.167h16.667l11.167 55.792a8.335 8.335 0 0 0 8.333 6.708h40.5a8.332 8.332 0 0 0 8.333-6.708l6.667-34.958H25.001"/></symbol><symbol id="icon-Star-1" viewBox="0 0 100 100"><path fill="#eea10c" d="M43.207 10.193c2.138-6.581 11.448-6.581 13.587 0L62.83 28.77a7.143 7.143 0 0 0 6.793 4.936h19.533c6.919 0 9.796 8.854 4.199 12.921L77.552 58.108a7.14 7.14 0 0 0-2.594 7.986l6.036 18.577c2.139 6.581-5.394 12.053-10.992 7.986L54.199 81.176a7.143 7.143 0 0 0-8.397 0L29.999 92.657c-5.598 4.067-13.13-1.405-10.992-7.986l6.036-18.577a7.143 7.143 0 0 0-2.595-7.986L6.645 46.627c-5.598-4.067-2.721-12.922 4.199-12.922h19.533a7.142 7.142 0 0 0 6.793-4.936l6.036-18.577z"/></symbol><symbol id="icon-Star-2" viewBox="0 0 100 100"><path fill="#eea10c" d="M47.99 3.81c.853-1.616 3.167-1.616 4.02 0l14.14 26.801a2.273 2.273 0 0 0 1.622 1.179l29.859 5.166c1.8.312 2.516 2.513 1.242 3.823l-21.12 21.73a2.273 2.273 0 0 0-.62 1.907l4.313 29.994c.26 1.809-1.612 3.169-3.252 2.363l-27.193-13.37a2.271 2.271 0 0 0-2.005 0l-27.193 13.37c-1.64.806-3.513-.554-3.252-2.363l4.313-29.994a2.273 2.273 0 0 0-.62-1.907L1.125 40.779c-1.274-1.31-.558-3.512 1.242-3.824l29.858-5.166a2.275 2.275 0 0 0 1.623-1.179l14.14-26.801z"/></symbol><symbol id="icon-x" viewBox="0 0 100 100"><path stroke-linecap="round" stroke-linejoin="round" stroke-width="9.375" d="M75 25 25 75m0-50 50 50"/></symbol><symbol id="icon-youtube" viewBox="0 0 100 100"><path fill="none" stroke="#f8f8f8" stroke-linecap="round" stroke-linejoin="round" stroke-width="5.263" d="M93.917 26.75a11.586 11.586 0 0 0-8.083-8.333c-7.167-1.75-35.833-1.75-35.833-1.75s-28.667 0-35.833 1.917a11.587 11.587 0 0 0-8.083 8.334A120.842 120.842 0 0 0 4.168 48.96a120.784 120.784 0 0 0 1.917 22.208 11.583 11.583 0 0 0 8.083 8c7.167 1.917 35.833 1.917 35.833 1.917s28.667 0 35.833-1.917a11.581 11.581 0 0 0 8.083-8.334 120.815 120.815 0 0 0 1.917-21.875 120.784 120.784 0 0 0-1.917-22.208z"/><path fill="none" stroke="#f8f8f8" stroke-linecap="round" stroke-linejoin="round" stroke-width="5.263" d="m40.625 62.583 23.958-13.625-23.958-13.625v27.25z"/></symbol><symbol id="icon-scroll-up" viewBox="0 0 32 32"><path d="M0 16c0 8.837 7.163 16 16 16s16-7.163 16-16S24.837 0 16 0 0 7.163 0 16zm29 0c0 7.18-5.82 13-13 13S3 23.18 3 16 8.82 3 16 3s13 5.82 13 13z"/><path d="m22.086 20.914 2.829-2.829-8.914-8.914-8.914 8.914 2.828 2.828 6.086-6.086z"/></symbol></defs></svg>