<svg width="24" height="24" fill="none" xmlns="http://www.w3.org/2000/svg"><g clip-path="url('#clip0_94_6563')"><path d="M11.558.838a.5.5 0 0 1 .884 0l3.111 5.896a.5.5 0 0 0 .357.26l6.569 1.136a.5.5 0 0 1 .273.841l-4.646 4.781a.5.5 0 0 0-.136.42l.949 6.598a.5.5 0 0 1-.716.52l-5.982-2.941a.5.5 0 0 0-.442 0L5.797 21.29a.5.5 0 0 1-.716-.52l.95-6.598a.5.5 0 0 0-.137-.42l-4.646-4.78a.5.5 0 0 1 .273-.842L8.09 6.994a.5.5 0 0 0 .357-.26l3.11-5.896Z" fill="#D9D9D9"/></g><defs><clipPath id="clip0_94_6563"><path fill="#fff" d="M0 0h24v24H0z"/></clipPath></defs></svg>