<svg width="24" height="24" viewBox="0 0 24 24" fill="none" xmlns="http://www.w3.org/2000/svg">
<path d="M10.5999 12.71C10.5061 12.617 10.4317 12.5064 10.381 12.3845C10.3302 12.2627 10.3041 12.132 10.3041 12C10.3041 11.8679 10.3302 11.7372 10.381 11.6154C10.4317 11.4935 10.5061 11.3829 10.5999 11.2899L15.1899 6.70994C15.2836 6.61698 15.358 6.50638 15.4088 6.38452C15.4595 6.26266 15.4857 6.13195 15.4857 5.99994C15.4857 5.86793 15.4595 5.73722 15.4088 5.61536C15.358 5.4935 15.2836 5.3829 15.1899 5.28994C15.0025 5.10369 14.749 4.99915 14.4849 4.99915C14.2207 4.99915 13.9672 5.10369 13.7799 5.28994L9.18986 9.87995C8.62806 10.4424 8.3125 11.2049 8.3125 12C8.3125 12.795 8.62806 13.5575 9.18986 14.12L13.7799 18.71C13.9661 18.8947 14.2175 18.9989 14.4799 19C14.6115 19.0007 14.7419 18.9755 14.8638 18.9257C14.9856 18.876 15.0964 18.8026 15.1899 18.71C15.2836 18.617 15.358 18.5064 15.4088 18.3845C15.4595 18.2627 15.4857 18.132 15.4857 18C15.4857 17.8679 15.4595 17.7372 15.4088 17.6154C15.358 17.4935 15.2836 17.3829 15.1899 17.29L10.5999 12.71Z" fill="white" fill-opacity="0.5"/>
</svg>
