<svg width="24" height="24" viewBox="0 0 24 24" fill="none" xmlns="http://www.w3.org/2000/svg">
<rect width="24" height="24" fill="#DDDDDD"/>
<g clip-path="url(#clip0_0_1)">
<rect width="1280" height="1979" transform="translate(-989 -1845)" fill="#161616"/>
<ellipse cx="15" cy="12" rx="22" ry="22" fill="#9BB537"/>
<path d="M20.4001 12.7098C20.4939 12.6169 20.5683 12.5063 20.619 12.3844C20.6698 12.2625 20.6959 12.1318 20.6959 11.9998C20.6959 11.8678 20.6698 11.7371 20.619 11.6153C20.5683 11.4934 20.4939 11.3828 20.4001 11.2898L15.8101 6.70982C15.7164 6.61686 15.642 6.50625 15.5912 6.3844C15.5405 6.26254 15.5143 6.13183 15.5143 5.99982C15.5143 5.86781 15.5405 5.7371 15.5912 5.61524C15.642 5.49338 15.7164 5.38278 15.8101 5.28982C15.9975 5.10357 16.251 4.99902 16.5151 4.99902C16.7793 4.99902 17.0328 5.10357 17.2201 5.28982L21.8101 9.87982C22.3719 10.4423 22.6875 11.2048 22.6875 11.9998C22.6875 12.7948 22.3719 13.5573 21.8101 14.1198L17.2201 18.7098C17.0339 18.8946 16.7825 18.9987 16.5201 18.9998C16.3885 19.0006 16.2581 18.9754 16.1362 18.9256C16.0144 18.8758 15.9036 18.8025 15.8101 18.7098C15.7164 18.6169 15.642 18.5063 15.5912 18.3844C15.5405 18.2626 15.5143 18.1319 15.5143 17.9998C15.5143 17.8678 15.5405 17.7371 15.5912 17.6153C15.642 17.4934 15.7164 17.3828 15.8101 17.2898L20.4001 12.7098Z" fill="#050505"/>
<path d="M13.4001 12.7098C13.4939 12.6169 13.5683 12.5063 13.619 12.3844C13.6698 12.2625 13.6959 12.1318 13.6959 11.9998C13.6959 11.8678 13.6698 11.7371 13.619 11.6153C13.5683 11.4934 13.4939 11.3828 13.4001 11.2898L8.81014 6.70982C8.71641 6.61686 8.64202 6.50625 8.59125 6.3844C8.54048 6.26254 8.51434 6.13183 8.51434 5.99982C8.51434 5.86781 8.54048 5.7371 8.59125 5.61524C8.64202 5.49338 8.71641 5.38278 8.81014 5.28982C8.9975 5.10357 9.25095 4.99902 9.51514 4.99902C9.77933 4.99902 10.0328 5.10357 10.2201 5.28982L14.8101 9.87982C15.3719 10.4423 15.6875 11.2048 15.6875 11.9998C15.6875 12.7948 15.3719 13.5573 14.8101 14.1198L10.2201 18.7098C10.0339 18.8946 9.78248 18.9987 9.52014 18.9998C9.38853 19.0006 9.25807 18.9754 9.13623 18.9256C9.0144 18.8758 8.90358 18.8025 8.81014 18.7098C8.71641 18.6169 8.64202 18.5063 8.59125 18.3844C8.54048 18.2626 8.51434 18.1319 8.51434 17.9998C8.51434 17.8678 8.54048 17.7371 8.59125 17.6153C8.64202 17.4934 8.71641 17.3828 8.81014 17.2898L13.4001 12.7098Z" fill="#050505"/>
</g>
<defs>
<clipPath id="clip0_0_1">
<rect width="1280" height="1979" fill="white" transform="translate(-989 -1845)"/>
</clipPath>
</defs>
</svg>
