<svg width="22" height="22" viewBox="0 0 22 22" fill="none" xmlns="http://www.w3.org/2000/svg">
<path d="M10.5578 0.83817C10.7454 0.482597 11.2546 0.482596 11.4422 0.838169L14.5531 6.73429C14.6254 6.87141 14.7573 6.96722 14.91 6.99365L21.4789 8.13022C21.875 8.19877 22.0324 8.68309 21.7522 8.97138L17.1059 13.752C16.9979 13.8631 16.9475 14.0182 16.9696 14.1716L17.9185 20.7702C17.9758 21.1681 17.5638 21.4674 17.203 21.29L11.2206 18.3485C11.0815 18.2801 10.9185 18.2801 10.7794 18.3485L4.79701 21.29C4.43623 21.4674 4.02425 21.1681 4.08147 20.7702L5.03041 14.1716C5.05248 14.0182 5.00211 13.8631 4.89406 13.752L0.247815 8.97139C-0.0323831 8.68309 0.124981 8.19877 0.521123 8.13022L7.08997 6.99365C7.24273 6.96722 7.3746 6.87141 7.44695 6.73429L10.5578 0.83817Z" fill="#EEA10C"/>
</svg>
