<svg width="24" height="24" viewBox="0 0 24 24" fill="none" xmlns="http://www.w3.org/2000/svg">
<g clip-path="url(#clip0_94_6563)">
<path d="M11.5578 0.83817C11.7454 0.482597 12.2546 0.482596 12.4422 0.838169L15.5531 6.73429C15.6254 6.87141 15.7573 6.96722 15.91 6.99365L22.4789 8.13022C22.875 8.19877 23.0324 8.68309 22.7522 8.97138L18.1059 13.752C17.9979 13.8631 17.9475 14.0182 17.9696 14.1716L18.9185 20.7702C18.9758 21.1681 18.5638 21.4674 18.203 21.29L12.2206 18.3485C12.0815 18.2801 11.9185 18.2801 11.7794 18.3485L5.79701 21.29C5.43623 21.4674 5.02425 21.1681 5.08147 20.7702L6.03041 14.1716C6.05248 14.0182 6.00211 13.8631 5.89406 13.752L1.24781 8.97139C0.967617 8.68309 1.12498 8.19877 1.52112 8.13022L8.08997 6.99365C8.24273 6.96722 8.3746 6.87141 8.44695 6.73429L11.5578 0.83817Z" fill="#D9D9D9"/>
</g>
<defs>
<clipPath id="clip0_94_6563">
<rect width="24" height="24" fill="white"/>
</clipPath>
</defs>
</svg>
