<svg width="38" height="38" viewBox="0 0 38 38" fill="none" xmlns="http://www.w3.org/2000/svg">
<path d="M35.6883 10.165C35.5002 9.41361 35.1172 8.72511 34.5778 8.1691C34.0385 7.61309 33.362 7.20925 32.6166 6.99837C29.8933 6.33337 19 6.33337 19 6.33337C19 6.33337 8.10663 6.33337 5.3833 7.06171C4.63794 7.27258 3.96143 7.67642 3.4221 8.23243C2.88277 8.78845 2.49972 9.47694 2.31164 10.2284C1.81323 12.9922 1.56943 15.7959 1.5833 18.6042C1.56554 21.4337 1.80935 24.2588 2.31164 27.0434C2.51899 27.7715 2.91062 28.4338 3.4487 28.9663C3.98677 29.4988 4.6531 29.8836 5.3833 30.0834C8.10663 30.8117 19 30.8117 19 30.8117C19 30.8117 29.8933 30.8117 32.6166 30.0834C33.362 29.8725 34.0385 29.4687 34.5778 28.9127C35.1172 28.3566 35.5002 27.6681 35.6883 26.9167C36.1829 24.1737 36.4266 21.3914 36.4166 18.6042C36.4344 15.7747 36.1906 12.9496 35.6883 10.165Z" stroke="#F8F8F8" stroke-width="2" stroke-linecap="round" stroke-linejoin="round"/>
<path d="M15.4375 23.7816L24.5417 18.6041L15.4375 13.4266V23.7816Z" stroke="#F8F8F8" stroke-width="2" stroke-linecap="round" stroke-linejoin="round"/>
</svg>
